<svg preserveAspectRatio="none" width="100%" height="100%" overflow="visible" style="display: block;" viewBox="0 0 14.9724 21.6992" fill="none" xmlns="http://www.w3.org/2000/svg">
<g id="Group">
<path id="Union" d="M6.84473 5C8.14201 5.00018 9.19434 6.05228 9.19434 7.34961V11.1289L12.5898 11.6953H12.5908C14.0974 11.9475 15.1398 13.3424 14.9502 14.8604L14.4072 19.2031L14.4062 19.2041C14.2267 20.6292 13.0161 21.6992 11.5781 21.6992H7.06836C6.40208 21.6992 5.75755 21.4654 5.24512 21.041L5.24316 21.04L1.18848 17.6602H1.1875C0.0598342 16.7186 -0.0193855 15.0116 1.02148 13.9707L1.02246 13.9697C1.69221 13.3017 2.6826 13.0659 3.58203 13.3662H3.58105L4.49414 13.6699V7.34961C4.49414 6.05217 5.54728 5 6.84473 5ZM6.84473 6.69922C6.48617 6.69922 6.19434 6.99105 6.19434 7.34961V14.8496C6.19434 15.1227 6.06326 15.3793 5.8418 15.5391C5.62031 15.6987 5.33524 15.7424 5.07617 15.6562L3.04395 14.9795L3.04297 14.9785C2.75692 14.8831 2.43881 14.9567 2.22266 15.1719C1.88978 15.5048 1.91481 16.0519 2.27637 16.3545L6.33105 19.7334H6.33008C6.53946 19.9064 6.80108 20 7.06836 20H11.5781C12.158 20 12.6471 19.5679 12.7197 18.9912L13.2627 14.6494C13.3344 14.0756 12.9699 13.5445 12.4219 13.3965L12.3105 13.3721L8.20508 12.6885C7.79519 12.6202 7.49414 12.2651 7.49414 11.8496V7.34961C7.49414 6.99116 7.20313 6.6994 6.84473 6.69922ZM1.84961 6C2.31905 6 2.69922 6.38017 2.69922 6.84961C2.69922 7.31905 2.31905 7.69922 1.84961 7.69922H0.849609C0.380167 7.69922 0 7.31905 0 6.84961C0 6.38017 0.380167 6 0.849609 6H1.84961ZM12.8496 6C13.3191 6 13.6992 6.38017 13.6992 6.84961C13.6992 7.31905 13.3191 7.69922 12.8496 7.69922H11.8496C11.3802 7.69922 11 7.31905 11 6.84961C11 6.38017 11.3802 6 11.8496 6H12.8496ZM1.99512 2.01367C2.3247 1.67938 2.86297 1.6753 3.19727 2.00488L3.90723 2.70508C4.24085 3.03469 4.24433 3.57217 3.91504 3.90625C3.58551 4.24021 3.04712 4.2443 2.71289 3.91504L2.00293 3.21484C1.66914 2.88533 1.66599 2.34785 1.99512 2.01367ZM10.4941 2.00488C10.8284 1.6753 11.3667 1.67938 11.6963 2.01367C12.0254 2.34785 12.0223 2.88533 11.6885 3.21484L10.9785 3.91504C10.6443 4.2443 10.1059 4.24021 9.77637 3.90625C9.44707 3.57217 9.45055 3.03469 9.78418 2.70508L10.4941 2.00488ZM6.84961 0C7.31905 0 7.69922 0.380167 7.69922 0.849609V1.84961C7.69922 2.31905 7.31905 2.69922 6.84961 2.69922C6.38017 2.69922 6 2.31905 6 1.84961V0.849609C6 0.380167 6.38017 0 6.84961 0Z" fill="var(--fill-0, #8934F9)" style="fill:#8934F9;fill:color(display-p3 0.5373 0.2039 0.9765);fill-opacity:1;"/>
</g>
</svg>
