<svg width="24" height="24" viewBox="0 0 24 24" fill="none" xmlns="http://www.w3.org/2000/svg">
<path d="M20.0039 2.25C21.5231 2.25 22.7539 3.48079 22.7539 5V19C22.7539 20.5192 21.5231 21.75 20.0039 21.75H4.00391C2.48469 21.75 1.25391 20.5192 1.25391 19V5C1.25391 3.48079 2.48469 2.25 4.00391 2.25H20.0039ZM2.75391 19C2.75391 19.6908 3.31312 20.25 4.00391 20.25H20.0039C20.6947 20.25 21.2539 19.6908 21.2539 19V8.75H2.75391V19ZM16.3252 11.5576C16.5697 11.2233 17.0387 11.15 17.373 11.3945C17.7073 11.6391 17.7796 12.1081 17.5352 12.4424L14.6094 16.4424C14.491 16.6042 14.3125 16.7127 14.1143 16.7422C13.9161 16.7716 13.714 16.7198 13.5537 16.5996L10.1611 14.0547L7.68359 17.4424C7.43912 17.7766 6.97004 17.8497 6.63574 17.6055C6.30154 17.361 6.2284 16.8919 6.47266 16.5576L9.39844 12.5576L9.49805 12.4463C9.60739 12.3464 9.74484 12.28 9.89355 12.2578C10.0918 12.2283 10.2937 12.2801 10.4541 12.4004L13.8467 14.9443L16.3252 11.5576ZM4.00391 3.75C3.31312 3.75 2.75391 4.30921 2.75391 5V7.25H21.2539V5C21.2539 4.30921 20.6947 3.75 20.0039 3.75H4.00391ZM4.9082 4.75195C4.9111 4.75245 4.91409 4.7524 4.91699 4.75293C4.94083 4.75729 4.96333 4.7659 4.98633 4.77246C5.01416 4.78032 5.04261 4.78739 5.07031 4.79883C5.07181 4.79946 5.0737 4.79917 5.0752 4.7998C5.15927 4.83517 5.24183 4.88733 5.31543 4.96094C5.47589 5.1214 5.53613 5.32318 5.53613 5.49512C5.53613 5.66705 5.47589 5.86884 5.31543 6.0293C5.15497 6.18976 4.95319 6.25 4.78125 6.25C4.60931 6.25 4.40753 6.18976 4.24707 6.0293C4.08661 5.86884 4.02637 5.66705 4.02637 5.49512C4.02637 5.32318 4.08661 5.1214 4.24707 4.96094C4.32067 4.88733 4.40323 4.83517 4.4873 4.7998C4.48852 4.79928 4.48999 4.79934 4.49121 4.79883C4.51889 4.78736 4.54739 4.78035 4.5752 4.77246C4.59818 4.76587 4.6207 4.75732 4.64453 4.75293C4.64743 4.7524 4.65043 4.75245 4.65332 4.75195C4.69494 4.74479 4.73758 4.74023 4.78125 4.74023C4.82459 4.74023 4.86688 4.7449 4.9082 4.75195ZM7.45117 4.75195C7.45407 4.75245 7.45706 4.7524 7.45996 4.75293C7.4838 4.75729 7.5063 4.7659 7.5293 4.77246C7.55712 4.78032 7.58558 4.78739 7.61328 4.79883C7.61478 4.79946 7.61667 4.79917 7.61816 4.7998C7.70224 4.83517 7.7848 4.88733 7.8584 4.96094C8.01886 5.1214 8.0791 5.32318 8.0791 5.49512C8.0791 5.66705 8.01886 5.86884 7.8584 6.0293C7.69794 6.18976 7.49615 6.25 7.32422 6.25C7.10567 6.25 6.9351 6.15787 6.82715 6.06348C6.70502 5.95661 6.56934 5.76266 6.56934 5.49512C6.56934 5.32318 6.62958 5.1214 6.79004 4.96094C6.86364 4.88733 6.9462 4.83517 7.03027 4.7998C7.03149 4.79928 7.03296 4.79934 7.03418 4.79883C7.06186 4.78736 7.09036 4.78035 7.11816 4.77246C7.14115 4.76587 7.16367 4.75732 7.1875 4.75293C7.1904 4.7524 7.19339 4.75245 7.19629 4.75195C7.23791 4.74479 7.28055 4.74023 7.32422 4.74023C7.36756 4.74023 7.40985 4.7449 7.45117 4.75195ZM9.99023 4.75195C9.99313 4.75245 9.99612 4.7524 9.99902 4.75293C10.0229 4.75729 10.0454 4.7659 10.0684 4.77246C10.0962 4.78032 10.1246 4.78739 10.1523 4.79883C10.1538 4.79946 10.1557 4.79917 10.1572 4.7998C10.2413 4.83517 10.3239 4.88733 10.3975 4.96094C10.5579 5.1214 10.6182 5.32318 10.6182 5.49512C10.6182 5.66705 10.5579 5.86884 10.3975 6.0293C10.237 6.18976 10.0352 6.25 9.86328 6.25C9.69135 6.25 9.48956 6.18976 9.3291 6.0293C9.16864 5.86884 9.1084 5.66705 9.1084 5.49512C9.1084 5.32318 9.16864 5.1214 9.3291 4.96094C9.4027 4.88733 9.48526 4.83517 9.56934 4.7998C9.57056 4.79928 9.57202 4.79934 9.57324 4.79883C9.60092 4.78736 9.62942 4.78035 9.65723 4.77246C9.68021 4.76587 9.70273 4.75732 9.72656 4.75293C9.72946 4.7524 9.73246 4.75245 9.73535 4.75195C9.77698 4.74479 9.81961 4.74023 9.86328 4.74023C9.90662 4.74023 9.94891 4.7449 9.99023 4.75195Z" fill="#8934F9" style="fill:#8934F9;fill:color(display-p3 0.5373 0.2039 0.9765);fill-opacity:1;"/>
</svg>
