<svg width="24" height="24" viewBox="0 0 24 24" fill="none" xmlns="http://www.w3.org/2000/svg">
<path d="M20 16C21.1043 16 22 16.8957 22 18V20C22 21.1043 21.1043 22 20 22H18C16.8957 22 16 21.1043 16 20V18C16 16.8957 16.8957 16 18 16H20ZM7 11C7.55228 11 8 11.4477 8 12C8 12.5523 7.55228 13 7 13H5C4.44728 13 4 13.4473 4 14V17C4 17.5527 4.44728 18 5 18H13C13.5523 18 14 18.4477 14 19C14 19.5523 13.5523 20 13 20H5C3.34272 20 2 18.6573 2 17V14C2 12.3427 3.34272 11 5 11H7ZM18 20H20V18H18V20ZM13 9C14.1043 9 15 9.89572 15 11V13C15 14.1043 14.1043 15 13 15H11C9.89572 15 9 14.1043 9 13V11C9 9.89572 9.89572 9 11 9H13ZM11 13H13V11H11V13ZM19 4C20.6573 4 22 5.34272 22 7V10C22 11.6573 20.6573 13 19 13H17C16.4477 13 16 12.5523 16 12C16 11.4477 16.4477 11 17 11H19C19.5527 11 20 10.5527 20 10V7C20 6.44728 19.5527 6 19 6H11C10.4477 6 10 5.55228 10 5C10 4.44772 10.4477 4 11 4H19ZM6 2C7.10428 2 8 2.89572 8 4V6C8 7.10428 7.10428 8 6 8H4C2.89572 8 2 7.10428 2 6V4C2 2.89572 2.89572 2 4 2H6ZM4 6H6V4H4V6Z" fill="#8934F9" style="fill:#8934F9;fill:color(display-p3 0.5373 0.2039 0.9765);fill-opacity:1;"/>
</svg>
